# xmcd
#
# Track frame offsets:
#	150
#	5556
#	24642
#	41788
#	60288
#	75778
#	90839
#	100283
#	117733
#	134600
#	153225
#	178194
#
# Disc length: 4440 seconds
#
# Revision: 1
# Processed by: cddbd v1.5.2PL0 Copyright (c) Steve Scherf et al.
# Submitted via: audiograbber 1.83.01
#
DISCID=8f11560c
DTITLE=Marit Larsen - Under The Surface
DYEAR=2006
DGENRE=Pop
TTITLE0=In Came The Light
TTITLE1=Under The Surface
TTITLE2=Don't Save Me
TTITLE3=Only A Fool
TTITLE4=Solid Ground
TTITLE5=This Time Tomorrow
TTITLE6=Recent Illusion
TTITLE7=The Sinking Game
TTITLE8=To An End
TTITLE9=Come Closer
TTITLE10=Poison Passion
TTITLE11=DATA
EXTD=
EXTT0=
EXTT1=
EXTT2=
EXTT3=
EXTT4=
EXTT5=
EXTT6=
EXTT7=
EXTT8=
EXTT9=
EXTT10=
EXTT11=
PLAYORDER=
